<svg width="235" height="161" viewBox="0 0 235 161" fill="none" xmlns="http://www.w3.org/2000/svg">
<mask id="mask0_443_617" style="mask-type:luminance" maskUnits="userSpaceOnUse" x="-15" y="0" width="265" height="161">
<path d="M249.629 0H-14.9297V160.8H249.629V0Z" fill="white"/>
</mask>
<g mask="url(#mask0_443_617)">
<path d="M3.46933 132.251C3.46933 133.058 3.52701 133.692 3.70004 134.038C3.81539 134.442 4.10377 134.788 4.44982 135.077H0.00878906C0.354844 134.788 0.585547 134.442 0.758575 134.038C0.931602 133.635 0.989277 133.058 0.989277 132.251V121.754C0.989277 120.946 0.931602 120.312 0.758575 119.966C0.585547 119.562 0.354844 119.216 0.00878906 118.927H10.3904V121.465C9.9867 121.177 9.58296 120.946 9.06388 120.773C8.60248 120.658 7.91037 120.485 7.27593 120.485C6.8722 120.485 5.54566 120.485 4.85355 120.6C4.44982 120.658 3.98842 120.715 3.52701 120.831V125.387H8.94853V127.752C8.77551 127.521 8.48712 127.406 8.19875 127.29C7.85269 127.175 5.83404 127.175 4.9689 127.175H3.46933V132.251Z" fill="black"/>
</g>
<mask id="mask1_443_617" style="mask-type:luminance" maskUnits="userSpaceOnUse" x="-15" y="0" width="265" height="161">
<path d="M249.629 0H-14.9297V160.8H249.629V0Z" fill="white"/>
</mask>
<g mask="url(#mask1_443_617)">
<path d="M14.7157 132.251C14.7157 133.058 14.7733 133.692 14.9464 134.038C15.0617 134.442 15.3501 134.788 15.6962 135.077H11.2551C11.6012 134.788 11.8319 134.442 12.0049 134.038C12.1779 133.635 12.2356 133.058 12.2356 132.251V121.754C12.2356 120.946 12.1779 120.312 12.0049 119.966C11.8319 119.562 11.6012 119.216 11.2551 118.927H16.8497C18.4646 118.927 19.7335 119.331 20.7139 120.081C21.6944 120.831 22.2135 121.811 22.2135 123.08C22.2135 123.945 21.9251 124.753 21.3484 125.445C20.7716 126.137 19.8488 126.714 18.5799 127.233L22.7903 132.827C23.021 133.173 23.367 133.519 23.7131 133.865C24.0591 134.211 24.4629 134.615 24.9243 135.019L23.6554 135.134H23.4824C22.9056 135.134 22.3289 134.961 21.7521 134.673C21.1754 134.385 20.7139 133.923 20.3102 133.404L15.4655 126.714C16.9074 126.368 17.9455 125.964 18.6376 125.387C19.3297 124.81 19.6181 124.118 19.6181 123.253C19.6181 122.446 19.3297 121.754 18.753 121.234C18.1762 120.715 17.4264 120.485 16.5036 120.485C16.2729 120.485 16.0422 120.485 15.7538 120.542C15.4655 120.6 15.1194 120.658 14.7733 120.715V132.251H14.7157Z" fill="black"/>
</g>
<mask id="mask2_443_617" style="mask-type:luminance" maskUnits="userSpaceOnUse" x="-15" y="0" width="265" height="161">
<path d="M249.629 0H-14.9297V160.8H249.629V0Z" fill="white"/>
</mask>
<g mask="url(#mask2_443_617)">
<path d="M28.8462 132.943C28.7885 133.116 28.7308 133.289 28.6731 133.462C28.6155 133.635 28.6155 133.808 28.6155 133.981C28.6155 134.154 28.6731 134.327 28.7885 134.5C28.9038 134.673 29.0769 134.904 29.3076 135.134H25.501C25.847 134.904 26.0777 134.615 26.3661 134.211C26.5968 133.808 26.8852 133.289 27.1159 132.654L31.6723 121.119C31.7876 120.888 31.8453 120.658 31.903 120.485C31.9607 120.312 31.9607 120.081 31.9607 119.908C31.9607 119.735 31.903 119.562 31.8453 119.389C31.73 119.216 31.6146 119.1 31.3839 118.927H35.0752L40.2083 132.481C40.439 133.116 40.7274 133.577 40.9581 133.981C41.2465 134.385 41.5925 134.731 42.0539 135.134H37.3822L37.4399 135.077C37.8436 134.615 38.0743 134.269 38.0743 134.096C38.0743 133.865 37.9589 133.462 37.7859 133C37.7859 132.943 37.7282 132.885 37.7282 132.827L36.344 129.078H30.4034L28.8462 132.943ZM31.0378 127.463H35.8249L33.5179 121.177L31.0378 127.463Z" fill="black"/>
</g>
<mask id="mask3_443_617" style="mask-type:luminance" maskUnits="userSpaceOnUse" x="-15" y="0" width="265" height="161">
<path d="M249.629 0H-14.9297V160.8H249.629V0Z" fill="white"/>
</mask>
<g mask="url(#mask3_443_617)">
<path d="M54.743 121.869C54.0509 121.465 53.3587 121.119 52.6666 120.888C51.9745 120.658 51.2824 120.6 50.5903 120.6C48.7447 120.6 47.1874 121.177 46.0339 122.33C44.8804 123.484 44.3036 125.041 44.3036 126.944C44.3036 128.963 44.8804 130.52 46.0916 131.674C47.3028 132.827 48.9177 133.404 50.9364 133.404C51.3978 133.404 51.9169 133.346 52.4359 133.289C52.955 133.231 53.5318 133.058 54.1085 132.885V129.597C54.1085 128.79 54.0509 128.271 53.8778 127.867C53.7625 127.521 53.4741 127.175 53.128 126.887H56.3002V134.442C55.262 134.673 54.2816 134.846 53.3587 134.961C52.4359 135.077 51.6285 135.134 50.8787 135.134C49.7252 135.134 48.7447 135.019 47.8219 134.788C46.8991 134.558 46.0916 134.269 45.3418 133.808C44.1306 133.116 43.2078 132.193 42.5157 130.982C41.8236 129.77 41.4775 128.502 41.4775 127.117C41.4775 125.964 41.7082 124.868 42.2273 123.83C42.6887 122.792 43.3808 121.869 44.3036 121.061C45.1111 120.312 46.0916 119.793 47.1298 119.389C48.2256 119.043 49.3791 118.812 50.648 118.812C51.2247 118.812 51.8015 118.87 52.4936 118.927C53.1857 118.985 53.8778 119.1 54.6853 119.273V121.869H54.743Z" fill="black"/>
</g>
<mask id="mask4_443_617" style="mask-type:luminance" maskUnits="userSpaceOnUse" x="-15" y="0" width="265" height="161">
<path d="M249.629 0H-14.9297V160.8H249.629V0Z" fill="white"/>
</mask>
<g mask="url(#mask4_443_617)">
<path d="M62.1832 132.251C62.1832 133.058 62.2409 133.692 62.4139 134.038C62.5293 134.442 62.8176 134.788 63.1637 135.077H58.7227C59.0687 134.788 59.2994 134.442 59.4724 134.038C59.6455 133.635 59.7031 133.058 59.7031 132.251V121.754C59.7031 120.946 59.6455 120.312 59.4724 119.966C59.2994 119.562 59.0687 119.216 58.7227 118.927H64.3172C65.9321 118.927 67.201 119.331 68.1815 120.081C69.162 120.831 69.681 121.811 69.681 123.08C69.681 123.945 69.3927 124.753 68.8159 125.445C68.2392 126.137 67.3163 126.714 66.0475 127.233L70.2578 132.827C70.4885 133.173 70.8346 133.519 71.1806 133.865C71.5267 134.211 72.0458 134.731 72.5072 135.134H71.1229H70.9499C70.3732 135.134 69.7964 134.961 69.2196 134.673C68.6429 134.385 68.1815 133.923 67.7777 133.404L62.933 126.714C64.3749 126.368 65.413 125.964 66.1052 125.387C66.7973 124.81 67.0856 124.118 67.0856 123.253C67.0856 122.446 66.7973 121.754 66.2205 121.234C65.6437 120.715 64.894 120.485 63.9712 120.485C63.7405 120.485 63.5097 120.485 63.2214 120.542C62.933 120.6 62.5869 120.658 62.2409 120.715V132.251H62.1832Z" fill="black"/>
</g>
<mask id="mask5_443_617" style="mask-type:luminance" maskUnits="userSpaceOnUse" x="-15" y="0" width="265" height="161">
<path d="M249.629 0H-14.9297V160.8H249.629V0Z" fill="white"/>
</mask>
<g mask="url(#mask5_443_617)">
<path d="M76.4292 132.943C76.3715 133.116 76.3138 133.289 76.2562 133.462C76.1985 133.635 76.1985 133.808 76.1985 133.981C76.1985 134.154 76.2561 134.327 76.3715 134.5C76.4869 134.673 76.6599 134.904 76.8906 135.134H73.084C73.43 134.904 73.6607 134.615 73.9491 134.211C74.1798 133.808 74.4682 133.289 74.6989 132.654L79.2553 121.119C79.3706 120.888 79.4283 120.658 79.486 120.485C79.5437 120.254 79.5437 120.081 79.5437 119.908C79.5437 119.735 79.486 119.562 79.4283 119.389C79.313 119.216 79.1976 119.1 78.9669 118.927H82.6582L87.7913 132.481C88.022 133.116 88.3104 133.577 88.5411 133.981C88.8295 134.385 89.1755 134.731 89.6369 135.134H84.9652L85.0229 135.077C85.4266 134.615 85.6573 134.269 85.6573 134.096C85.6573 133.865 85.5419 133.462 85.3689 133C85.3689 132.943 85.3112 132.885 85.3112 132.827L83.927 129.078H77.8711L76.4292 132.943ZM78.6209 127.463H83.4079L81.1009 121.177L78.6209 127.463Z" fill="black"/>
</g>
<mask id="mask6_443_617" style="mask-type:luminance" maskUnits="userSpaceOnUse" x="-15" y="0" width="265" height="161">
<path d="M249.629 0H-14.9297V160.8H249.629V0Z" fill="white"/>
</mask>
<g mask="url(#mask6_443_617)">
<path d="M106.593 118.927C106.247 119.216 106.016 119.562 105.843 119.966C105.728 120.369 105.613 120.946 105.613 121.754V135.134C105.036 135.134 104.459 135.077 103.94 134.731C103.421 134.385 102.844 133.981 102.094 133L93.7314 122.446V132.308C93.7314 133.173 93.7891 133.75 93.9621 134.154C94.0774 134.558 94.3658 134.904 94.7119 135.192H91.0206C91.3667 134.904 91.5974 134.558 91.7704 134.154C91.9434 133.75 92.0011 133.173 92.0011 132.366V121.869C92.0011 121.061 91.9434 120.427 91.7704 120.081C91.5974 119.677 91.3667 119.331 91.0206 119.043H94.3081L103.882 131.212V121.869C103.882 121.061 103.825 120.427 103.652 120.081C103.479 119.677 103.248 119.331 102.902 119.043H106.593V118.927Z" fill="black"/>
</g>
<mask id="mask7_443_617" style="mask-type:luminance" maskUnits="userSpaceOnUse" x="-15" y="0" width="265" height="161">
<path d="M249.629 0H-14.9297V160.8H249.629V0Z" fill="white"/>
</mask>
<g mask="url(#mask7_443_617)">
<path d="M122.166 131.674L120.954 134.442C120.205 134.673 119.455 134.846 118.82 134.961C118.128 135.077 117.494 135.134 116.917 135.134C115.994 135.134 115.129 135.019 114.264 134.788C113.399 134.558 112.591 134.211 111.842 133.808C110.63 133.116 109.708 132.193 109.015 130.982C108.323 129.77 107.977 128.444 107.977 127.002C107.977 125.906 108.208 124.868 108.727 123.83C109.246 122.792 109.938 121.927 110.803 121.119C111.611 120.427 112.591 119.85 113.63 119.504C114.668 119.158 115.821 118.927 117.032 118.927C117.609 118.927 118.186 118.985 118.82 119.1C119.455 119.216 120.089 119.331 120.839 119.562V122.042C120.089 121.696 119.397 121.407 118.763 121.234C118.128 121.061 117.494 120.946 116.859 120.946C115.071 120.946 113.572 121.465 112.476 122.561C111.38 123.599 110.861 125.041 110.861 126.829C110.861 128.79 111.438 130.347 112.534 131.501C113.687 132.712 115.129 133.289 116.975 133.289C117.724 133.289 118.532 133.173 119.397 132.885C120.205 132.597 121.127 132.193 122.166 131.674Z" fill="black"/>
</g>
<mask id="mask8_443_617" style="mask-type:luminance" maskUnits="userSpaceOnUse" x="-15" y="0" width="265" height="161">
<path d="M249.629 0H-14.9297V160.8H249.629V0Z" fill="white"/>
</mask>
<g mask="url(#mask8_443_617)">
<path d="M124.934 135.134C125.28 134.846 125.51 134.5 125.683 134.096C125.856 133.692 125.914 133.116 125.914 132.308V121.811C125.914 121.004 125.856 120.369 125.683 120.023C125.51 119.62 125.28 119.273 124.934 118.985H133.816V121.523C133.412 121.234 133.008 121.004 132.489 120.831C132.028 120.715 131.451 120.6 130.817 120.6C130.47 120.6 130.124 120.6 129.721 120.658C129.317 120.715 128.856 120.773 128.394 120.888V125.445H132.374V127.809C132.201 127.579 131.912 127.463 131.624 127.348C131.336 127.233 130.701 127.233 129.894 127.233H128.452V133.058C129.086 133.173 129.605 133.231 130.124 133.289C130.643 133.346 131.047 133.346 131.393 133.346C132.201 133.346 133.008 133.231 133.7 133C134.45 132.77 135.142 132.424 135.834 131.962L134.681 135.134H124.934Z" fill="black"/>
</g>
<mask id="mask9_443_617" style="mask-type:luminance" maskUnits="userSpaceOnUse" x="-15" y="0" width="265" height="161">
<path d="M249.629 0H-14.9297V160.8H249.629V0Z" fill="white"/>
</mask>
<g mask="url(#mask9_443_617)">
<path d="M156.021 135.134C155.04 135.134 154.637 135.019 154.118 134.5C153.656 133.981 153.137 132.597 152.676 131.27L149.676 122.215C149.446 121.465 149.215 120.831 148.927 120.312C148.638 119.793 148.35 119.331 148.004 118.927H151.407C151.407 119.158 151.407 119.331 151.464 119.562C151.522 119.793 151.58 120.023 151.637 120.312L155.386 132.02L158.559 122.215C158.674 121.811 158.789 121.465 158.847 121.177C158.905 120.888 158.905 120.715 158.905 120.485C158.905 120.254 158.847 120.023 158.732 119.793C158.616 119.562 158.386 119.216 158.097 118.87H161.385V119.216C161.385 119.908 161.5 120.715 161.788 121.58C161.846 121.754 161.846 121.811 161.904 121.869L165.076 131.904L168.19 122.561C168.306 122.157 168.421 121.811 168.479 121.465C168.536 121.119 168.594 120.831 168.594 120.6C168.594 120.312 168.536 120.023 168.363 119.735C168.19 119.446 167.96 119.1 167.671 118.812H171.247L165.768 135.019C164.961 135.019 164.557 134.961 164.038 134.442C163.519 133.923 162.942 132.712 162.654 131.731L159.885 123.368L156.021 135.134Z" fill="black"/>
</g>
<mask id="mask10_443_617" style="mask-type:luminance" maskUnits="userSpaceOnUse" x="-15" y="0" width="265" height="161">
<path d="M249.629 0H-14.9297V160.8H249.629V0Z" fill="white"/>
</mask>
<g mask="url(#mask10_443_617)">
<path d="M180.476 134.961C179.265 134.961 178.053 134.788 176.958 134.385C175.862 134.038 174.939 133.462 174.131 132.77C173.324 132.02 172.69 131.155 172.228 130.174C171.767 129.194 171.536 128.156 171.536 127.06C171.536 126.195 171.651 125.387 171.94 124.58C172.228 123.772 172.632 123.022 173.209 122.33C174.074 121.234 175.112 120.427 176.381 119.85C177.65 119.273 178.976 118.985 180.476 118.985C181.745 118.985 182.898 119.158 183.994 119.562C185.09 119.908 186.013 120.485 186.82 121.177C187.685 121.927 188.32 122.792 188.723 123.772C189.185 124.753 189.415 125.848 189.415 127.002C189.415 128.04 189.185 129.078 188.666 130.116C188.147 131.155 187.455 132.02 186.589 132.827C185.782 133.519 184.859 134.096 183.821 134.442C182.725 134.788 181.629 134.961 180.476 134.961ZM180.533 120.6C178.745 120.6 177.246 121.177 176.092 122.33C174.939 123.484 174.362 124.983 174.362 126.771C174.362 128.617 174.939 130.174 176.092 131.443C177.246 132.654 178.688 133.289 180.418 133.289C182.206 133.289 183.706 132.712 184.859 131.558C186.013 130.405 186.589 128.905 186.589 127.06C186.589 125.214 186.013 123.657 184.859 122.388C183.706 121.177 182.264 120.6 180.533 120.6Z" fill="black"/>
</g>
<mask id="mask11_443_617" style="mask-type:luminance" maskUnits="userSpaceOnUse" x="-15" y="0" width="265" height="161">
<path d="M249.629 0H-14.9297V160.8H249.629V0Z" fill="white"/>
</mask>
<g mask="url(#mask11_443_617)">
<path d="M206.603 135.134C206.949 134.846 207.179 134.5 207.352 134.096C207.525 133.692 207.583 133.116 207.583 132.308V121.811C207.583 121.004 207.525 120.369 207.352 120.023C207.179 119.62 206.949 119.273 206.603 118.985H211.044C210.698 119.273 210.467 119.62 210.294 120.023C210.178 120.427 210.063 121.004 210.063 121.811V133.058C210.698 133.173 211.274 133.231 211.736 133.289C212.255 133.346 212.658 133.346 213.005 133.346C213.812 133.346 214.619 133.231 215.312 133C216.004 132.77 216.753 132.424 217.446 131.962L216.292 135.134H206.603Z" fill="black"/>
</g>
<mask id="mask12_443_617" style="mask-type:luminance" maskUnits="userSpaceOnUse" x="-15" y="0" width="265" height="161">
<path d="M249.629 0H-14.9297V160.8H249.629V0Z" fill="white"/>
</mask>
<g mask="url(#mask12_443_617)">
<path d="M219.753 135.134C220.099 134.846 220.33 134.5 220.503 134.096C220.618 133.692 220.733 133.116 220.733 132.25V121.754C220.733 120.888 220.676 120.312 220.503 119.908C220.387 119.504 220.099 119.216 219.753 118.87H225.405C226.905 118.87 228.174 119.043 229.154 119.331C230.135 119.619 231.057 120.081 231.923 120.773C232.845 121.523 233.595 122.388 234.057 123.426C234.518 124.407 234.749 125.56 234.749 126.771C234.749 127.867 234.576 128.905 234.23 129.886C233.883 130.809 233.364 131.674 232.615 132.481C231.749 133.404 230.711 134.096 229.442 134.5C228.174 134.904 226.616 135.134 224.598 135.134H219.753ZM223.213 133.173C223.79 133.289 224.309 133.346 224.713 133.404C225.117 133.462 225.521 133.462 225.809 133.462C227.597 133.462 229.096 132.827 230.25 131.616C231.403 130.405 232.038 128.848 232.038 127.002C232.038 125.099 231.461 123.541 230.308 122.388C229.154 121.234 227.597 120.658 225.636 120.658C225.232 120.658 224.828 120.658 224.425 120.715C224.021 120.773 223.617 120.831 223.156 120.946V133.173H223.213Z" fill="black"/>
</g>
<mask id="mask13_443_617" style="mask-type:luminance" maskUnits="userSpaceOnUse" x="-15" y="0" width="265" height="161">
<path d="M249.629 0H-14.9297V160.8H249.629V0Z" fill="white"/>
</mask>
<g mask="url(#mask13_443_617)">
<path d="M194.03 132.251C194.03 133.058 194.088 133.692 194.261 134.038C194.376 134.442 194.664 134.788 195.01 135.077H190.569C190.915 134.788 191.146 134.442 191.319 134.038C191.492 133.635 191.55 133.058 191.55 132.251V121.754C191.55 120.946 191.492 120.312 191.319 119.966C191.146 119.562 190.915 119.216 190.569 118.927H196.164C197.779 118.927 199.048 119.331 200.028 120.081C201.009 120.831 201.528 121.811 201.528 123.08C201.528 123.945 201.239 124.753 200.663 125.445C200.086 126.137 199.163 126.714 197.894 127.233L202.104 132.827C202.335 133.173 202.681 133.519 203.027 133.865C203.373 134.211 203.892 134.731 204.354 135.134H202.97H202.797C202.22 135.134 201.643 134.961 201.066 134.673C200.49 134.385 200.028 133.923 199.624 133.404L194.78 126.714C196.222 126.368 197.26 125.964 197.952 125.387C198.644 124.81 198.932 124.118 198.932 123.253C198.932 122.446 198.644 121.754 198.067 121.234C197.49 120.715 196.741 120.485 195.818 120.485C195.587 120.485 195.356 120.485 195.068 120.542C194.78 120.6 194.434 120.658 194.088 120.715V132.251H194.03Z" fill="black"/>
</g>
<mask id="mask14_443_617" style="mask-type:luminance" maskUnits="userSpaceOnUse" x="-15" y="0" width="265" height="161">
<path d="M249.629 0H-14.9297V160.8H249.629V0Z" fill="white"/>
</mask>
<g mask="url(#mask14_443_617)">
<path d="M143.39 42.8531C143.39 42.7377 143.333 42.507 143.333 42.2763C143.333 42.161 143.333 42.0456 143.333 41.9303C143.333 41.8149 143.333 41.6996 143.333 41.6419C143.275 41.4112 143.217 41.1805 143.102 41.0651C142.987 40.9498 142.756 40.8921 142.467 40.8344C142.813 40.7768 143.044 40.6614 143.16 40.4307C143.333 40.2 143.39 39.9693 143.39 39.6232C143.39 39.2195 143.275 38.9311 142.986 38.7004C142.698 38.4697 142.352 38.412 141.891 38.412H139.814V43.1415H140.91V41.1228H141.487C141.718 41.1228 141.891 41.1805 141.948 41.2958C142.064 41.4112 142.121 41.5265 142.121 41.7572L142.179 42.6801C142.179 42.7954 142.179 42.8531 142.179 42.9684C142.179 43.0261 142.237 43.1415 142.294 43.1991H143.506C143.506 43.0261 143.448 42.9684 143.39 42.8531ZM142.064 40.2577C141.891 40.373 141.718 40.4307 141.487 40.4307H141.026V39.0465H141.545C142.064 39.0465 142.294 39.2772 142.294 39.7386C142.237 40.027 142.179 40.2 142.064 40.2577Z" fill="black"/>
</g>
<mask id="mask15_443_617" style="mask-type:luminance" maskUnits="userSpaceOnUse" x="-15" y="0" width="265" height="161">
<path d="M249.629 0H-14.9297V160.8H249.629V0Z" fill="white"/>
</mask>
<g mask="url(#mask15_443_617)">
<path d="M141.429 35.5283C138.546 35.5283 136.239 37.893 136.239 40.7191C136.239 43.6029 138.546 45.9099 141.429 45.9099C144.313 45.9099 146.62 43.6029 146.62 40.7191C146.678 37.893 144.313 35.5283 141.429 35.5283ZM141.429 44.8717C139.18 44.8717 137.277 43.0261 137.277 40.7768C137.277 38.5274 139.122 36.6818 141.429 36.6818C143.679 36.6818 145.524 38.5274 145.524 40.7768C145.524 43.0261 143.736 44.8717 141.429 44.8717Z" fill="black"/>
</g>
<mask id="mask16_443_617" style="mask-type:luminance" maskUnits="userSpaceOnUse" x="-15" y="0" width="265" height="161">
<path d="M249.629 0H-14.9297V160.8H249.629V0Z" fill="white"/>
</mask>
<g mask="url(#mask16_443_617)">
<path d="M110.457 49.0244H110.515C110.515 48.9667 110.515 48.909 110.515 48.909C110.515 48.9667 110.457 49.0244 110.457 49.0244ZM131.221 101.798C131.221 101.74 131.567 101.682 131.567 101.682C131.913 101.567 132.201 101.452 132.547 101.336C127.356 102.72 121.82 103.759 115.879 103.759C111.784 103.759 108.496 103.24 104.748 102.547C104.517 102.663 103.652 102.836 103.479 102.951C101.864 103.47 100.191 103.932 98.5762 104.624C96.8459 105.374 97.019 104.97 97.5957 106.989C97.5957 106.989 97.6534 107.046 97.7111 107.104C98.6916 106.815 99.6721 106.527 100.71 106.239C101.806 105.95 102.844 105.662 103.94 105.489C104.978 105.258 106.016 105.085 107.112 104.912C108.15 104.739 109.246 104.566 110.284 104.393C111.38 104.278 112.476 104.162 113.572 104.047C114.668 103.989 115.706 103.874 116.802 103.816C117.898 103.759 118.936 103.759 120.032 103.816C121.127 103.816 122.223 103.816 123.319 103.874C124.415 103.932 125.453 103.989 126.549 104.105C127.645 104.162 128.741 104.278 129.836 104.451C130.932 104.566 131.97 104.739 133.009 104.97C134.104 105.143 135.143 105.374 136.181 105.604C137.277 105.835 138.315 106.123 139.411 106.354C140.449 106.585 141.372 107.046 142.41 107.104C139.18 104.681 135.085 102.778 131.221 101.798ZM106.189 32.4714C109.362 29.703 112.995 28.2034 117.205 28.2611C120.378 28.3188 123.319 29.2416 126.145 30.5681C127.01 30.9719 127.818 31.5486 128.568 32.1831C129.779 33.2212 130.529 34.5478 130.067 36.278C129.836 37.3162 129.317 38.1237 128.51 38.8158C127.702 39.5079 127.068 40.373 126.549 41.2381C125.626 42.68 125.395 44.295 125.684 45.9676C125.741 46.1983 125.799 46.4866 125.857 46.775C124.992 46.7173 124.184 46.602 123.319 46.5443C126.664 46.8904 129.952 47.5248 133.009 48.3323C131.855 47.9862 130.702 47.6978 129.548 47.4095C129.029 47.3518 128.683 47.0634 128.452 46.7173C127.702 45.6792 127.702 44.5833 128.222 43.4298C128.798 42.1033 129.779 41.1228 130.875 40.2C132.663 38.5851 133.585 36.6241 132.951 34.2017C132.547 32.4714 131.567 30.9719 130.24 29.8184C128.395 28.2611 126.318 27.2229 124.069 26.5308C121.416 25.7234 118.705 25.4927 115.937 25.7234C113.86 25.8964 111.842 26.2425 109.938 27.1653C107.112 28.5495 104.921 30.5681 103.652 33.5096C103.306 34.2594 103.075 35.0668 103.017 36.105C103.248 35.8743 103.363 35.759 103.421 35.7013C104.171 34.4901 105.094 33.4519 106.189 32.4714Z" fill="black"/>
</g>
<mask id="mask17_443_617" style="mask-type:luminance" maskUnits="userSpaceOnUse" x="-15" y="0" width="265" height="161">
<path d="M249.629 0H-14.9297V160.8H249.629V0Z" fill="white"/>
</mask>
<g mask="url(#mask17_443_617)">
<path d="M136.065 84.3796C137.68 80.4 138.488 76.1897 138.949 71.9216C139.007 71.4026 139.18 71.2295 139.641 70.9988C140.91 70.4221 142.179 69.903 143.39 69.2109C144.14 68.8072 144.774 68.1727 145.409 67.596C145.755 67.3076 146.043 66.9039 146.101 66.3848C143.794 67.1346 141.487 67.8267 139.122 68.5765C139.295 63.3856 138.719 58.4832 137.161 53.6384C137.219 53.6384 137.219 53.6384 137.277 53.6384C133.528 51.8505 129.26 50.5239 124.761 49.7165C127.587 50.2932 130.356 50.9854 133.182 51.9658C129.894 54.0998 126.261 55.311 122.396 56.0031C122.281 55.5994 122.223 55.2534 122.108 54.965C121.704 53.8115 121.3 52.6003 120.781 51.5044C120.435 50.7547 119.859 50.1202 119.397 49.4281C119.339 49.3128 119.166 49.3128 118.936 49.1974C119.282 51.7351 119.57 54.0998 119.859 56.5799C116.052 57.272 112.361 57.1567 108.612 56.6376C109.246 54.0422 109.996 51.5621 110.457 48.9667H110.4C108.554 51.2161 107.516 53.8115 106.593 56.4646C103.767 56.2338 96.4999 54.5613 95.1157 53.8691C95.231 53.4654 95.3464 53.004 95.4617 52.6003C94.9426 52.831 94.3659 53.1194 93.8468 53.4077C93.8468 53.4654 93.7891 53.5808 93.7314 53.6384C93.6738 53.6384 93.6161 53.5808 93.5584 53.5808C92.9817 53.8691 92.4626 54.2152 91.8858 54.5613C92.2895 54.7343 92.6356 54.965 93.0393 55.138C92.4626 57.445 91.7705 59.6367 91.3667 61.8861C90.9053 64.1354 90.6746 66.4425 90.3286 68.8072C87.8485 68.2881 85.4261 67.5383 82.9461 66.9615C85.3108 68.5765 87.8485 69.73 90.4439 70.7681C90.4439 75.6706 91.3667 80.2846 93.2124 84.8987C89.4058 84.1489 85.7722 83.2261 82.1963 82.0726C82.1963 82.2456 82.1963 82.3033 82.254 82.3033C82.427 82.4186 82.6 82.4763 82.7154 82.5917C86.1759 84.6103 89.8672 86.1099 93.7314 87.1481C94.1928 87.2634 94.4812 87.5518 94.7696 87.9555C95.8078 89.7435 96.9613 91.4737 98.0571 93.204C98.2301 93.4924 98.5185 93.7231 98.8069 93.9538C99.326 94.2998 99.8451 94.6459 100.364 94.992C100.48 95.0496 100.653 95.1073 100.826 95.2227C99.3837 92.9156 98.1148 90.6086 97.0766 88.0709C97.4804 88.1285 97.7687 88.1862 97.9994 88.2439C100.653 88.6476 103.248 89.109 105.901 89.4551C106.535 89.5128 106.824 89.7435 107.112 90.3202C108.439 93.0887 110.4 95.2803 112.88 97.0683C113.053 97.1836 113.284 97.299 113.457 97.4143C112.303 94.8766 111.034 92.5119 110.054 89.8588C111.38 89.9165 112.534 89.9742 113.745 89.9742C114.898 89.9742 116.052 89.9165 117.205 89.9742C118.359 89.9742 119.513 89.7435 120.781 89.8011C120.089 92.6272 119.109 95.165 118.128 97.9334C118.474 97.7604 118.647 97.7027 118.763 97.5874C119.282 97.0683 119.859 96.5492 120.378 95.9724C121.762 94.2998 122.569 92.3389 123.146 90.2625C123.377 89.5128 123.377 89.5128 124.184 89.3974C126.318 89.2244 128.395 88.9937 130.529 88.763C130.875 88.7053 131.163 88.6476 131.624 88.5899C130.183 91.3584 128.914 94.0691 126.953 96.3185L127.126 96.4915C127.818 95.9148 128.568 95.3957 129.26 94.7612C131.221 92.9733 132.836 90.7816 134.22 88.5323C134.451 88.1862 134.739 87.9555 135.143 87.7825C136.296 87.4364 137.45 87.0904 138.546 86.629C140.737 85.7638 142.871 84.7257 144.659 83.1684C145.005 82.8224 145.294 82.4186 145.582 82.0149C145.697 81.8996 145.64 81.7265 145.697 81.4381C142.525 82.88 139.353 83.9759 136.123 85.014C136.123 84.841 136.123 84.7833 136.123 84.7257C135.95 84.7257 136.008 84.5526 136.065 84.3796ZM104.748 86.802C102.037 86.3983 99.326 86.0522 96.6152 85.6485C96.2115 85.5908 95.9231 85.4178 95.7501 84.9564C94.3659 80.746 93.5007 76.478 93.27 72.037C93.27 72.037 93.27 71.9793 93.3277 71.864C96.7883 72.9598 100.306 73.7096 103.94 74.2287C104.113 78.5544 104.459 82.7647 105.728 86.975C105.324 86.802 105.036 86.802 104.748 86.802ZM103.825 71.2872C100.191 70.8258 96.6729 70.2491 93.1547 69.4993C93.0393 64.8275 93.5584 60.3865 94.6543 55.8878C98.2878 57.272 101.979 58.1948 105.901 58.7716C104.748 62.8666 103.882 66.9615 103.825 71.2872ZM108.15 58.9446C112.13 59.6367 116.11 59.7521 120.205 59.1753C121.012 63.328 121.3 67.4806 121.531 71.691C116.571 72.21 111.669 72.2677 106.824 71.6333C106.535 69.4416 107.17 62.1744 108.15 58.9446ZM120.724 87.2057C120.089 87.2634 119.455 87.3211 118.763 87.3788C115.764 87.5518 112.764 87.5518 109.765 87.3211C109.073 87.2634 109.073 87.2634 108.9 86.629C107.689 82.7647 106.997 78.8427 106.766 74.8054C106.766 74.6901 106.766 74.5747 106.766 74.4594C106.766 74.4017 106.824 74.4017 106.882 74.2287C111.842 74.8054 116.802 75.1515 121.762 74.6324C122.108 77.0548 121.531 84.6103 120.724 87.2057ZM123.031 58.7139C127.472 57.7911 131.509 55.8878 135.373 53.4654C135.835 54.7343 136.008 55.8878 136.065 57.0413C136.296 60.3288 136.469 63.6163 136.642 66.9615C136.7 67.769 136.642 68.5765 136.642 69.4416C132.778 70.7681 128.683 71.2872 124.53 71.7486C124.357 67.3653 124.011 63.0396 123.031 58.7139ZM133.066 84.8987C132.893 85.2447 132.72 85.4178 132.374 85.4755C129.663 86.2829 126.895 86.7443 124.069 87.0327C124.011 87.0327 123.896 87.0327 123.838 86.975C124.069 84.841 124.357 82.707 124.473 80.6307C124.646 78.4967 124.588 76.3627 124.646 74.2287C128.568 73.7096 132.49 73.3059 136.527 72.0947C136.296 73.5942 136.123 74.9208 135.892 76.2473C135.373 79.3041 134.335 82.1303 133.066 84.8987Z" fill="black"/>
</g>
<mask id="mask18_443_617" style="mask-type:luminance" maskUnits="userSpaceOnUse" x="-15" y="0" width="265" height="161">
<path d="M249.629 0H-14.9297V160.8H249.629V0Z" fill="white"/>
</mask>
<g mask="url(#mask18_443_617)">
<path d="M105.844 48.39C112.246 45.7946 119.455 45.5062 126.319 46.6597C133.182 47.6979 139.93 50.2933 145.698 54.5036C151.35 58.6562 156.079 64.9429 156.944 72.2677C157.406 75.9013 156.887 79.6502 155.445 82.9954C154.061 86.3406 151.869 89.2821 149.331 91.8198C146.794 94.3575 143.852 96.3185 140.738 97.9911C137.623 99.6637 134.336 100.875 130.99 101.855C124.242 103.701 117.206 104.22 110.227 103.47C103.306 102.778 96.4426 100.644 90.3867 97.126C87.3875 95.338 84.5037 93.204 82.1967 90.4356C79.9474 87.7248 78.2748 84.3796 77.9287 80.8614C77.9287 80.8037 77.9864 80.7461 77.9864 80.7461C78.0441 80.7461 78.0441 80.7461 78.0441 80.8037C79.8897 83.7452 81.9083 86.2253 84.273 88.4746C86.5801 90.724 89.1178 92.6849 92.0016 94.2999C97.6538 97.472 104.114 99.26 110.573 99.9521C117.091 100.644 123.723 100.125 130.01 98.5102C133.182 97.6451 136.239 96.5492 139.123 94.992C142.006 93.4924 144.717 91.7045 146.967 89.4551C151.523 85.0717 154.637 78.9581 153.772 72.6715C152.965 66.4425 148.87 61.021 143.621 57.3874C138.373 53.6385 132.144 51.2737 125.742 50.0049C119.282 48.7937 112.707 48.5053 105.844 48.39Z" fill="black"/>
</g>
<mask id="mask19_443_617" style="mask-type:luminance" maskUnits="userSpaceOnUse" x="-15" y="0" width="265" height="161">
<path d="M249.629 0H-14.9297V160.8H249.629V0Z" fill="white"/>
</mask>
<g mask="url(#mask19_443_617)">
<path d="M78.6778 75.6129C78.101 74.6324 77.1205 73.5943 75.7363 72.6715C75.794 72.4408 75.794 71.864 75.794 71.8063C76.0247 72.0947 76.3131 72.3254 76.6014 72.6138C76.8898 72.8445 77.2936 73.3059 77.6973 73.3059C77.928 73.3059 78.0433 73.1329 78.0433 72.9022C78.0433 72.7291 77.9857 72.5561 77.928 72.3831C77.8126 72.1524 77.6973 72.037 77.4666 71.864C77.4089 71.8063 77.2935 71.8063 77.2935 71.7487C76.6014 71.2872 76.0247 70.8258 75.5633 70.3068C75.3902 70.1337 75.3326 70.1337 75.2749 70.0761C75.2172 70.0761 75.2172 70.0761 75.1595 70.0761H75.0442L74.9865 70.1337C74.9288 70.1914 74.8712 70.2491 74.8712 70.3068C74.8712 70.3644 74.8712 70.4221 74.9288 70.7105C75.1019 71.2872 75.2172 71.8063 75.1595 72.3254C74.3521 71.8063 73.7177 71.3449 73.1986 70.8835C72.7372 70.4798 72.3334 70.0761 72.0451 69.73C71.9874 69.6146 71.9297 69.557 71.7567 69.4993H71.699H71.6413C71.7567 69.2686 71.8144 69.0379 71.872 68.8649C72.0451 68.2881 72.1027 67.7113 72.0451 67.1923C71.9874 66.5578 71.8143 66.2695 71.526 66.2118C71.3529 66.1541 71.1799 66.2695 71.1222 66.4425C71.0646 66.5578 71.0646 66.6732 71.0646 66.7885C71.0069 67.3653 70.8339 67.9421 70.6608 68.5188L70.1418 70.0184C69.6804 71.3449 69.4497 72.4408 69.3343 73.2482C69.2766 74.0557 69.2766 74.8055 69.4496 75.5553C69.6804 76.4781 70.0264 77.1702 70.6032 77.7469C71.1222 78.3237 71.872 78.6697 72.6218 78.8428C73.6023 79.0158 74.5828 78.439 74.8712 77.5162C75.0442 76.9395 74.9865 76.305 74.6981 75.5553C74.4098 74.9208 74.006 74.4017 73.487 73.9403C73.487 73.9403 73.4293 73.9403 73.4293 73.8827C73.4293 73.8827 73.0255 73.5366 73.0255 73.5943C72.6795 73.3636 72.3911 73.1905 72.1027 73.0175C71.7567 72.8445 71.4683 72.7291 71.2953 72.6715C71.1799 72.6715 71.0646 72.6715 71.0646 72.6715L70.8339 72.7291V72.8445C70.8339 72.9598 71.0069 73.0752 71.2376 73.2482C71.4683 73.3636 71.6413 73.4789 71.8143 73.6519C72.3334 74.0557 72.7948 74.5171 73.1409 74.9785C73.3139 75.2092 73.4293 75.4399 73.6023 75.7283C74.006 76.4781 74.0637 77.1125 73.9484 77.6316C73.7753 78.2083 73.1409 78.3814 72.6218 78.266C72.2181 78.2083 71.8144 78.0353 71.4106 77.7469C71.0069 77.4586 70.7185 77.0548 70.4301 76.5934C70.1418 76.0167 69.9687 75.3822 69.9111 74.7478C69.8534 74.0557 69.9687 73.3636 70.1994 72.7291C70.3725 72.1524 70.6608 71.4603 71.0646 70.7105C71.2376 70.4221 71.2953 70.1914 71.4106 69.9607C71.4683 70.1914 71.6413 70.6528 72.3334 71.4603C72.5065 71.6333 72.6218 71.8063 72.8525 72.037L73.3716 72.5561C73.833 73.0175 74.3521 73.4213 74.9865 73.8827C75.0442 74.5171 75.2172 75.1515 75.5056 75.6706C75.9093 76.4781 76.14 76.5934 76.3707 76.5934C76.5438 76.5934 76.7168 76.5357 76.7168 76.3627C76.7168 76.2474 76.6014 76.0743 76.4861 75.959C76.0824 75.4399 75.8517 74.9208 75.7363 74.3441C76.8321 75.0938 77.6396 75.786 78.101 76.4204C78.2164 76.5934 78.3317 76.7664 78.4471 76.9971C78.6201 77.3432 78.7354 77.8046 78.6201 78.2083C78.5624 78.5544 78.3317 79.0735 77.8703 79.1311C77.8126 79.1311 77.755 79.0735 77.6396 79.0158C77.4666 78.9004 77.2935 78.8428 77.1782 78.8428C76.9475 78.7851 76.7168 78.8428 76.4861 78.9004C76.2554 79.0158 76.14 79.1311 76.0824 79.3042C76.0247 79.5349 76.0247 79.7079 76.1977 79.8809C76.7168 80.4577 77.6973 80.227 78.2164 79.8809C78.5624 79.6502 78.7931 79.3618 78.9661 78.9581C79.0238 78.8428 79.0815 78.7274 79.0815 78.6697C79.4852 77.6892 79.3122 76.7088 78.6778 75.6129Z" fill="black"/>
</g>
<mask id="mask20_443_617" style="mask-type:luminance" maskUnits="userSpaceOnUse" x="-15" y="0" width="265" height="161">
<path d="M249.629 0H-14.9297V160.8H249.629V0Z" fill="white"/>
</mask>
<g mask="url(#mask20_443_617)">
<path d="M99.6139 45.5062C99.5563 45.5062 99.5563 45.5062 99.4986 45.5062C99.3832 45.5062 99.3256 45.6215 99.2102 45.9099C99.1525 46.0829 99.0372 46.256 98.9795 46.429C98.8065 46.775 98.6334 47.0634 98.4604 47.2941C98.2874 47.4671 98.0567 47.6978 97.826 47.6402C97.5376 47.6402 97.3646 47.3518 97.3069 47.0634C97.3646 47.0634 97.4223 47.0634 97.4223 47.0634C97.4799 47.0634 97.5376 47.0057 97.5953 46.9481C97.999 46.6597 98.4604 46.3136 98.7488 45.8522C99.0949 45.3908 99.2102 44.9294 99.0372 44.5834C98.9218 44.4103 98.8065 44.2373 98.5758 44.1796C98.4604 44.1219 98.3451 44.1219 98.172 44.1219C98.1144 44.1219 97.999 44.1796 97.8837 44.1796C97.8837 44.1796 97.826 44.1796 97.826 44.2373C97.4799 44.3526 97.1915 44.5834 96.9032 44.9294C96.4994 45.3908 96.3264 45.9676 96.2687 46.602C96.2687 46.6597 96.2687 46.7174 96.2687 46.775C96.1534 46.775 96.0957 46.7174 96.038 46.775C95.9227 46.8327 95.865 46.9481 95.865 47.0634C95.8073 47.2941 95.7497 47.4671 95.692 47.6402C95.519 48.0439 95.4036 48.3323 95.2306 48.563C95.1152 48.736 94.9422 48.8514 94.7692 48.9667C94.6538 49.0244 94.5961 49.0244 94.4808 48.9667C94.3654 48.909 94.3078 48.8514 94.2501 48.736C94.0194 48.2746 93.9617 47.7555 94.0771 47.1211C94.2501 46.4867 94.4231 46.1406 94.7692 45.9676C94.7692 45.9676 94.8268 45.9676 94.8845 45.9676C94.8845 45.9676 94.8845 46.0252 94.8268 46.0829C94.6538 46.3136 94.7115 46.429 94.7692 46.602C94.8268 46.7174 94.9422 46.8327 95.1152 46.8327C95.2306 46.8904 95.4036 46.8327 95.519 46.775C95.692 46.7174 95.8073 46.602 95.865 46.429C95.9227 46.256 95.865 46.0829 95.8073 45.9099C95.692 45.6792 95.519 45.5638 95.2883 45.5062C95.0576 45.4485 94.8268 45.5062 94.5385 45.6215C94.1924 45.7945 93.904 46.0252 93.6157 46.3713C93.3273 46.7174 93.2119 47.0057 93.0966 47.5825C93.0389 47.8709 93.0389 48.2746 93.0389 48.2746C92.9812 48.2746 92.7505 48.2746 92.7505 48.2746C92.6352 48.3323 92.6352 48.4476 92.5775 48.6783C92.5775 48.8514 92.5198 48.9667 92.5198 49.1397C92.4621 49.4281 92.4045 49.7165 92.3468 50.0049C92.2891 50.1202 92.2314 50.2933 92.1161 50.4086C91.9431 50.5816 91.9431 50.3509 91.9431 50.2356C91.9431 50.0625 92.0007 48.9667 91.9431 48.6207C91.9431 48.3323 91.77 47.9862 91.597 47.7555C91.3663 47.4671 90.9626 47.4095 90.6742 47.6402C90.5012 47.7555 90.3858 47.9285 90.2705 48.1593C90.0974 48.563 90.0398 48.8514 89.9244 49.3704C89.9244 49.3128 89.9244 49.3128 89.9244 49.2551C89.9244 49.1974 89.9244 49.1974 89.9244 49.1397C89.9244 49.0821 89.8667 49.0244 89.8091 48.9667C89.6937 48.8514 89.5783 48.7937 89.4053 48.736C89.29 48.736 89.2323 48.6783 89.1169 48.736C88.7132 48.7937 88.4825 49.0821 88.3672 49.4858C88.2518 49.8318 88.1941 50.3509 88.1365 50.7547C88.0788 51.5621 88.0211 52.3119 87.9058 53.1194C87.8481 53.3501 87.7904 53.6961 87.6174 53.6961C87.3867 53.7538 87.2713 52.1966 87.156 51.3891C87.0983 50.9854 87.0406 50.524 86.9829 50.1202C86.5215 50.3509 86.1755 50.7547 86.0601 51.2161C85.2527 51.2161 84.6182 52.0235 84.4452 52.831C84.2722 53.6384 84.3875 54.5036 84.2722 55.311C84.2722 55.4264 84.2145 55.5417 84.1568 55.5417C84.0415 55.5994 83.9261 55.5417 83.8685 55.4841C83.5801 55.2534 83.6378 54.7343 83.7531 54.3882C83.8108 53.9845 83.7531 53.4654 83.3494 53.4077C82.9456 53.3501 82.7726 53.8691 82.7726 54.2729C82.7726 54.5613 82.7726 54.6766 82.888 55.0803C82.7726 54.9073 82.5419 54.6766 82.1382 54.7343C81.8498 54.792 81.6191 55.0227 81.5614 55.311C81.5037 55.5994 81.5037 55.8878 81.5037 56.1762C81.6191 57.272 81.7345 58.3679 81.8498 59.4637C81.3884 58.4832 80.8693 57.445 80.4079 56.4646C80.0619 56.8106 79.8888 57.272 79.8888 57.7334C79.3697 57.8488 78.966 58.3679 78.8507 58.8869C78.7353 59.406 78.8507 59.9828 78.966 60.5019C79.1967 61.54 80.0042 63.8471 79.6004 63.674C79.3697 63.674 78.2739 61.6554 77.6972 60.5595C77.4088 60.9633 77.2357 61.4823 77.3511 61.9438C76.9474 62.0591 76.7167 62.4052 76.6013 62.7512C76.486 63.1549 76.5436 63.5587 76.6013 63.9047C76.7167 64.6545 76.9474 65.2889 77.1204 66.0964C77.1781 66.2694 77.1781 66.5578 77.005 66.5578C76.9474 66.5578 76.8897 66.5001 76.832 66.5001C76.4283 66.1541 76.4283 65.5197 76.1976 65.0582C76.1399 64.9429 76.0822 64.8852 76.0245 64.8275C75.7938 64.6545 75.4478 64.8275 75.4478 65.1159C75.3901 65.4043 75.5055 65.6927 75.6785 65.9811C75.7362 66.0964 75.9092 66.3271 76.0245 66.4425C75.7938 66.2694 75.4478 66.2694 75.1594 66.5001C74.8134 66.7308 74.9287 67.1922 75.0441 67.596C75.2748 68.2304 75.5631 68.8072 75.9092 69.3839C75.9669 69.4993 76.1399 69.6146 76.2553 69.4993C76.3129 69.4416 76.3129 69.3263 76.2553 69.2109C75.9669 68.4611 75.3324 67.3076 75.3901 67.0192C75.4478 66.5578 76.8897 68.9225 77.5818 69.9607C78.1009 69.0379 77.5241 67.942 76.9474 67.0769C77.2357 67.1922 77.6395 66.9615 77.7548 66.6155C77.8702 66.3271 77.8125 65.9234 77.6972 65.635C78.1009 66.0387 78.62 66.0964 79.0237 65.7504C79.4274 65.4043 79.4274 64.8852 79.2544 64.1931C79.6004 64.3661 80.0619 64.0778 80.2349 63.7317C80.4079 63.328 80.2926 62.9242 80.1772 62.5205C80.0619 62.1168 79.9465 61.8284 79.8312 61.367C80.1195 61.7707 80.754 61.9438 81.1577 61.7131C81.6191 61.4823 81.8498 60.9056 81.6768 60.4442C82.0228 61.8284 81.4461 63.3856 82.1382 64.6545C82.3689 65.0582 82.8303 65.4043 83.1763 65.1736C83.2917 65.1159 83.4071 64.9429 83.4647 64.8275C83.7531 64.1931 83.6954 63.3856 83.4647 62.6935C83.234 62.0014 82.888 61.367 82.6573 60.6749C82.4266 59.9251 82.3689 59.1176 82.2535 58.3102C82.1382 57.2143 81.9075 55.2534 82.1382 55.2534C82.4842 55.1957 83.061 57.6181 83.2917 58.8293C83.6954 58.4832 83.8684 57.9641 83.9261 57.3874C83.9261 56.8683 83.8108 56.3492 83.6954 55.8301C83.9261 56.0608 84.3875 56.0032 84.6759 55.7724C84.9066 55.5417 85.022 55.138 85.022 54.792C85.2527 55.4841 85.8871 55.5994 86.2908 55.311C86.7522 55.0227 86.9829 54.5036 87.0406 53.9268C87.2713 54.2729 87.7904 54.2152 88.0788 53.9268C88.3672 53.6384 88.4825 53.2347 88.5402 52.831C88.7132 51.5621 89.0016 48.6783 89.2323 49.1397C89.29 50.4086 89.3477 51.6198 89.3477 52.8887C89.8091 52.7733 90.1551 52.3696 90.3281 51.9082C90.5012 51.4468 90.5012 50.9854 90.5588 50.4663C90.6165 49.6588 90.7895 48.8514 91.0779 48.0439C91.3663 47.5825 91.251 49.0821 91.251 49.5435C91.251 50.0626 91.1933 50.5816 91.6547 50.87C92.0007 51.043 92.5198 50.9854 92.7505 50.697C92.8659 50.524 92.9235 50.3509 92.9812 50.1202C93.0966 49.8318 93.385 48.563 93.385 48.563C93.4426 48.736 93.5003 48.8514 93.558 48.9667C93.6733 49.1397 93.8464 49.3128 94.0194 49.3704C94.4231 49.5435 94.8268 49.5435 95.2306 49.3704C95.519 49.2551 95.7497 49.0821 95.9227 48.7937C96.0957 48.563 96.3264 48.1592 96.4994 47.6978C96.6148 47.4671 96.6148 47.2941 96.7301 47.1211C96.7301 47.1211 96.7301 47.1788 96.7878 47.1788C96.9608 47.5248 97.2492 47.8132 97.5376 47.9862C97.5953 48.0439 97.7106 48.0439 97.7683 48.1016C97.8837 48.1016 97.999 48.1593 98.1144 48.1593C98.2874 48.1593 98.4027 48.1593 98.5758 48.1016C98.8641 47.9862 99.0949 47.8132 99.3256 47.5825C99.5563 47.3518 99.787 47.0057 99.96 46.5443C100.133 46.2559 100.191 46.0252 100.248 45.9099C100.306 45.7945 100.306 45.6792 100.306 45.5638C99.787 45.6215 99.7293 45.5638 99.6139 45.5062ZM98.2297 44.7564C98.2874 44.8141 98.2874 44.8717 98.2874 44.9294C98.2874 44.9871 98.2874 45.0448 98.2874 45.1024C98.2874 45.2755 98.172 45.4485 98.1144 45.5638C98.1144 45.5638 98.1144 45.6215 98.0567 45.6215C97.9413 45.8522 97.826 46.0252 97.653 46.1983C97.5953 46.2559 97.5953 46.256 97.5376 46.3136C97.4799 46.3713 97.4223 46.429 97.3069 46.4867C97.3069 46.0829 97.3646 45.7369 97.5376 45.3908C97.653 45.1601 97.7683 44.9294 97.9413 44.8141C97.999 44.7564 98.0567 44.7564 98.1144 44.6987C98.172 44.7564 98.2297 44.7564 98.2297 44.7564ZM85.7718 54.792C85.4257 54.6766 85.3103 54.2152 85.195 53.9268C85.0796 53.5808 85.022 53.177 85.022 52.7733C85.022 52.7156 85.022 52.6003 85.022 52.5426C85.022 52.2542 85.0796 51.9659 85.3103 51.7928C85.368 51.7351 85.4257 51.6775 85.541 51.6775C85.5987 51.6775 85.7141 51.7351 85.7718 51.7928C85.8871 51.9082 85.9448 52.0235 86.0025 52.1966C86.1178 52.6003 86.1755 53.004 86.1755 53.4077C86.1755 53.7538 86.1755 54.0999 86.1178 54.4459C86.0025 54.5613 85.9448 54.792 85.7718 54.792ZM77.1781 62.5205C77.3511 62.6359 77.5241 62.8089 77.7548 63.0973C77.9278 63.3856 78.1586 63.7317 78.2739 64.1354C78.3893 64.4238 78.4469 64.6545 78.4469 64.8852C78.4469 65.1159 78.4469 65.2313 78.3893 65.2889C78.3893 65.3466 78.3316 65.3466 78.3316 65.3466C78.3316 65.3466 78.2739 65.3466 78.2162 65.2889C78.0432 65.2313 77.8702 65.0582 77.6972 64.8275C77.5241 64.5968 77.2934 64.3085 77.1781 64.0201C77.1204 63.9047 77.0627 63.7894 77.005 63.674C76.9474 63.501 76.8897 63.328 76.832 63.1549C76.7743 62.9242 76.7743 62.7512 76.8897 62.5782C76.9474 62.5205 76.9474 62.5205 77.005 62.5205C77.1204 62.4628 77.1204 62.4628 77.1781 62.5205ZM82.6573 64.5392C82.5996 64.5968 82.5419 64.5968 82.4842 64.5968C82.3689 64.5968 82.2535 64.4815 82.1959 64.3661C82.0805 64.2508 82.0228 64.1354 82.0228 63.9624V63.9047C81.9075 63.6164 81.9075 63.328 81.8498 63.0396C81.7921 62.5205 81.7921 62.0591 81.7921 61.54C81.9652 61.8861 82.1959 62.2898 82.3112 62.6935C82.4266 62.9819 82.5419 63.2703 82.6573 63.5587C82.7149 63.7317 82.7149 63.9047 82.7726 64.0201C82.7149 64.1931 82.7149 64.3661 82.6573 64.5392ZM80.5809 61.1363C80.5233 61.194 80.4656 61.194 80.3502 61.1363C80.1772 61.0209 80.0042 60.8479 79.8888 60.6172C79.7158 60.3865 79.6004 60.0981 79.4851 59.8098V59.7521C79.3697 59.406 79.3121 59.1176 79.3121 58.8869C79.3121 58.6562 79.3697 58.4832 79.4274 58.3102C79.4274 58.2525 79.4851 58.2525 79.5428 58.2525C79.6004 58.2525 79.6581 58.2525 79.7158 58.2525C79.8888 58.3679 80.0619 58.5986 80.2349 58.8869C80.4079 59.1753 80.5233 59.579 80.6386 60.0405C80.6963 60.3288 80.754 60.5595 80.754 60.7902C80.6963 61.0209 80.6386 61.1363 80.5809 61.1363Z" fill="black"/>
</g>
<mask id="mask21_443_617" style="mask-type:luminance" maskUnits="userSpaceOnUse" x="-15" y="0" width="265" height="161">
<path d="M249.629 0H-14.9297V160.8H249.629V0Z" fill="white"/>
</mask>
<g mask="url(#mask21_443_617)">
<path d="M110.457 36.7971H110.572C110.572 36.7971 110.572 36.7971 110.63 36.7971C110.803 36.8548 110.976 36.8548 111.034 36.7971C111.207 36.7395 111.322 36.6241 111.38 36.4511C111.438 36.3357 111.438 36.1627 111.38 35.9897C111.322 35.8166 111.207 35.7013 111.091 35.6436C110.976 35.5859 110.803 35.5859 110.688 35.5859L110.399 35.759L110.342 35.8166C110.169 35.9897 109.996 36.278 109.88 36.6241C109.592 37.2009 109.188 38.239 108.554 40.027C107.919 41.6996 107.516 42.7954 107.17 43.4875C107.054 43.7759 106.881 44.0643 106.766 44.295C106.939 43.7182 106.997 43.0838 107.112 42.5647C107.227 41.6419 107.285 40.6614 107.227 39.6232C107.227 39.5656 107.227 39.4502 107.227 39.3349C107.17 38.5851 107.227 38.1237 107.285 37.893C107.285 37.8353 107.343 37.6623 107.458 37.5469C107.573 37.3739 107.631 37.2009 107.573 37.0855C107.573 36.9702 107.516 36.9125 107.4 36.8548C107.285 36.7971 107.227 36.7971 107.112 36.8548C106.939 36.9125 106.881 37.0855 106.823 37.3739V37.4316C106.823 37.4892 106.823 37.4892 106.823 37.4892C106.766 37.6623 106.65 38.0083 106.42 38.4697L106.304 38.7581C106.247 38.8735 106.189 38.9888 106.131 39.1042C105.843 39.7386 105.497 40.9498 104.92 42.7377C104.632 43.7182 104.343 44.468 104.055 45.1601C104.17 44.641 104.228 44.1219 104.343 43.6605C104.459 42.6801 104.516 41.6996 104.459 40.6614V40.3154C104.401 39.4502 104.459 39.1042 104.516 38.9311C104.574 38.8158 104.632 38.7004 104.689 38.5274C104.805 38.2967 104.863 38.1237 104.805 38.066C104.747 37.9506 104.689 37.893 104.632 37.8353C104.516 37.7776 104.401 37.7776 104.343 37.8353C104.17 37.893 104.055 38.1237 103.997 38.2967C103.94 38.5274 103.882 38.6428 103.882 38.7581C103.709 39.1042 103.536 39.4502 103.363 39.6809C103.075 40.027 102.902 40.1423 102.902 40.1423C102.902 40.1423 102.729 40.3153 102.613 39.8539C102.555 39.7386 102.555 39.6232 102.498 39.5656C102.325 39.2772 102.209 39.1042 101.979 38.9888C101.806 38.8735 101.575 38.8735 101.344 38.9311C101.056 39.0465 100.825 39.2772 100.537 39.7386C100.306 40.1423 100.133 40.6037 100.018 41.1228C99.9601 41.4112 99.9024 41.6996 99.8447 41.9303C99.8447 42.161 99.8447 42.334 99.8447 42.4494C99.9024 42.5647 100.018 42.5647 100.075 42.5647H100.133C100.248 42.507 100.306 42.3917 100.364 42.0456C100.364 41.8149 100.421 41.5842 100.421 41.4689C100.479 41.0075 100.652 40.6037 100.768 40.2577C100.998 39.8539 101.114 39.7386 101.229 39.7386C101.229 39.7386 101.344 39.7386 101.575 40.2L101.633 40.2577C101.748 40.5461 101.921 40.7191 102.094 40.8344C102.267 40.9498 102.498 40.9498 102.729 40.8921C102.902 40.8344 103.075 40.6614 103.305 40.4307C103.363 40.373 103.421 40.3153 103.478 40.2C103.305 41.2382 103.19 42.3917 103.19 43.7759C103.19 44.1796 103.19 44.468 103.19 44.6987C103.19 45.1601 103.132 45.6215 103.017 46.0829C102.902 46.8327 102.902 46.8904 102.902 47.0057C102.959 47.1211 103.017 47.1211 103.075 47.1788H103.132C103.19 47.1788 103.248 47.1788 103.248 47.1788C103.363 47.1211 103.536 47.0057 103.882 46.3713C104.17 45.9099 104.401 45.3331 104.632 44.6987C104.805 44.1219 105.151 43.1415 105.555 41.8149C105.728 41.2958 105.843 40.8344 106.016 40.4307C105.958 41.1805 105.901 41.9303 105.958 42.7954C105.958 43.1991 105.958 43.4875 105.958 43.6605C105.958 44.1219 105.901 44.5834 105.785 45.1024C105.67 45.8522 105.67 45.9099 105.67 46.0253C105.67 46.0829 105.728 46.1406 105.843 46.1983H105.901C105.958 46.1983 106.016 46.1983 106.016 46.1983C106.131 46.1406 106.304 46.0252 106.997 44.8141C107.458 43.9489 107.862 43.0261 108.265 42.0456C108.496 41.3535 108.842 40.4884 109.188 39.4502C110.053 37.3162 110.399 36.8548 110.457 36.7971Z" fill="black"/>
</g>
<mask id="mask22_443_617" style="mask-type:luminance" maskUnits="userSpaceOnUse" x="-15" y="0" width="265" height="161">
<path d="M249.629 0H-14.9297V160.8H249.629V0Z" fill="white"/>
</mask>
<g mask="url(#mask22_443_617)">
<path d="M122.685 42.68C122.627 42.6224 122.569 42.6224 122.512 42.6224C122.396 42.6224 122.339 42.68 122.166 42.8531C122.05 42.9684 121.993 43.0261 121.935 43.0838C121.647 43.4298 121.358 43.6605 121.127 43.8336C120.897 44.0066 120.781 44.0643 120.781 44.0643C120.781 44.0066 120.839 43.8336 120.897 43.6605C120.954 43.4875 121.127 43.1991 121.358 42.8531L124.819 37.0855H123.665L121.243 41.2381C121.185 41.1805 121.185 41.1228 121.127 41.0651C121.012 40.9498 120.839 40.8344 120.608 40.8344C120.262 40.8344 119.974 40.8921 119.57 41.1228C119.166 41.3535 118.763 41.6419 118.417 41.9879C118.071 42.334 117.782 42.68 117.494 43.0261C117.206 43.3722 116.917 43.7182 116.571 44.0066C116.456 44.1219 116.34 44.1796 116.225 44.1219C116.225 44.0643 116.225 43.9489 116.283 43.8912C116.34 43.7759 116.456 43.4875 116.686 43.0838L118.993 38.7581L120.089 36.7394L118.936 36.9701L116.859 40.7767C116.802 40.8921 116.686 41.0074 116.513 41.2381C116.34 41.4689 116.167 41.6996 115.937 41.9879L115.591 42.3917C115.533 42.4493 115.129 42.8531 115.129 42.8531C115.014 43.0261 114.841 43.1415 114.725 43.1415H114.668C114.668 43.1415 114.61 43.0838 114.61 43.0261C114.61 42.8531 114.61 42.7377 114.668 42.6224C114.725 42.507 114.783 42.3917 114.956 42.2186C115.014 42.2186 115.014 42.161 115.072 42.1033C115.302 41.8726 115.533 41.6419 115.648 41.3535C115.706 41.2958 115.706 41.1805 115.706 41.1228C115.591 40.6037 114.841 40.9498 114.668 41.1805C114.552 41.3535 114.322 41.7572 114.206 42.2186C114.149 42.2763 114.149 42.2763 114.149 42.2763C114.206 42.0456 114.206 41.8726 114.206 41.6419C114.206 41.4112 114.033 41.1228 113.803 41.0651C113.514 40.9498 113.168 41.1228 112.995 41.3535C112.822 41.5265 112.591 41.8149 112.245 42.2763L111.957 42.7377C111.957 42.7954 111.899 42.7954 111.899 42.8531L111.669 43.1991C111.553 43.3722 111.38 43.4875 111.265 43.6029C111.207 43.6605 111.15 43.7182 111.034 43.7182C111.15 43.4875 111.207 43.2568 111.207 43.0838C111.265 42.7954 111.265 42.5647 111.207 42.334C111.15 42.0456 111.034 41.8149 110.804 41.6419C110.284 41.1805 109.535 41.6996 109.131 42.0456C108.843 42.334 108.496 42.7377 108.266 43.1991C108.093 43.4875 108.035 43.6605 107.977 43.7182C107.862 43.8912 107.862 43.9489 107.92 44.0066C107.977 44.1219 108.035 44.1796 108.035 44.1796C108.035 44.1796 108.093 44.1796 108.15 44.1796C108.15 44.2373 108.15 44.2373 108.15 44.295C108.208 44.6987 108.381 45.0447 108.554 45.2755C108.727 45.4485 108.958 45.5638 109.189 45.5638C109.246 45.5638 109.304 45.5638 109.362 45.5638C109.419 45.5638 109.477 45.5062 109.535 45.5062L109.708 45.3908C109.765 45.3908 109.765 45.3331 109.823 45.3331C109.881 45.3331 109.881 45.2755 109.881 45.2755C109.938 45.2178 110.054 45.1601 110.111 45.1024C110.342 44.8717 110.515 44.641 110.746 44.295C110.804 44.295 110.861 44.295 110.919 44.2373C111.15 44.1796 111.38 44.0643 111.553 43.8912C111.726 43.7759 112.188 43.1414 112.303 43.0261C112.361 42.9107 112.418 42.8531 112.476 42.7954C112.534 42.7377 112.534 42.68 112.534 42.68C112.88 42.2186 113.111 41.9303 113.284 41.7572C113.399 41.5842 113.514 41.5265 113.572 41.5265C113.572 41.5842 113.514 41.6996 113.341 42.1033L111.899 44.9294L113.111 44.6987L113.168 44.641C113.514 44.0643 113.745 43.7182 113.976 43.3721C114.091 43.2568 114.149 43.1414 114.206 43.0261C114.206 43.1991 114.264 43.3722 114.379 43.4875C114.495 43.6029 114.668 43.6605 114.898 43.6029C115.072 43.6029 115.302 43.4875 115.475 43.3145L115.533 43.2568C115.591 43.1991 115.648 43.1414 115.706 43.0838C115.591 43.3145 115.591 43.5452 115.591 43.7182C115.591 44.0066 115.706 44.2373 115.821 44.3526C115.937 44.5257 116.167 44.5833 116.398 44.5833C116.571 44.5833 116.802 44.468 116.975 44.295C117.148 44.1219 117.436 43.8912 117.84 43.4298C117.955 43.2568 118.071 43.1414 118.128 43.0838C118.128 43.4875 118.186 43.8336 118.244 44.0643C118.532 44.641 119.166 44.5833 119.628 44.2373C119.743 44.1219 119.916 44.0066 120.032 43.8912C120.032 44.0643 120.089 44.2373 120.147 44.3526C120.262 44.5257 120.435 44.5833 120.608 44.5833C120.839 44.5833 121.012 44.5257 121.243 44.4103C121.474 44.295 121.762 44.0643 122.166 43.6029C122.339 43.4298 122.512 43.2568 122.627 43.0838C122.685 42.9684 122.742 42.7954 122.685 42.68ZM118.993 43.0261C119.109 42.7954 119.224 42.5647 119.34 42.3917V42.334C119.397 42.2763 119.455 42.2186 119.455 42.161C119.628 41.8726 119.859 41.6996 120.089 41.5265C120.262 41.4112 120.435 41.3535 120.608 41.3535C120.666 41.3535 120.666 41.3535 120.724 41.4112C120.781 41.4689 120.781 41.5265 120.781 41.5842C120.781 41.8149 120.666 42.0456 120.493 42.3917C120.32 42.68 120.089 43.0261 119.743 43.3721C119.57 43.6029 119.34 43.7759 119.166 43.8912C119.109 43.8912 119.109 43.9489 119.109 43.9489C119.051 44.0066 118.936 44.0643 118.82 44.0066C118.82 44.0066 118.82 44.0066 118.763 44.0066C118.763 44.0066 118.763 44.0066 118.763 43.9489C118.705 43.8336 118.763 43.7182 118.763 43.6029C118.763 43.4875 118.82 43.3722 118.878 43.2568C118.993 43.1414 118.993 43.0838 118.993 43.0261ZM109.073 44.0066C109.131 43.7182 109.246 43.3721 109.362 43.0838C109.477 42.7954 109.592 42.5647 109.708 42.3917C109.765 42.334 109.765 42.2763 109.823 42.2763C109.938 42.1033 110.054 42.0456 110.169 41.9879C110.227 41.9879 110.284 41.9879 110.342 42.0456C110.4 42.1033 110.457 42.2186 110.457 42.334C110.515 42.5647 110.457 42.8531 110.4 43.1415C110.342 43.4298 110.227 43.7759 109.996 44.0643C109.881 44.295 109.708 44.5257 109.535 44.641L109.362 44.7564C109.304 44.814 109.246 44.814 109.189 44.8717C109.131 44.8717 109.073 44.8717 109.073 44.8717C109.016 44.814 109.016 44.7564 109.016 44.6987C109.016 44.5257 109.016 44.295 109.073 44.0066Z" fill="black"/>
</g>
</svg>
